<svg xmlns="http://www.w3.org/2000/svg" version="1.1" xmlns:xlink="http://www.w3.org/1999/xlink" xmlns:svgjs="http://svgjs.com/svgjs" width="1440" height="560" preserveAspectRatio="none" viewBox="0 0 1440 560"><g mask="url(&quot;#SvgjsMask1003&quot;)" fill="none"><path d="M420 41.18C397.85 41.18 376.92 91.9 376.92 140C376.92 177.83 397.92 213.04 420 213.04C442.48 213.04 466.03 177.98 466.03 140C466.03 92.05 442.4 41.18 420 41.18" stroke="rgba(51, 121, 194, 0.58)" stroke-width="2"></path><path d="M502.35 0C531.93 3.7 533.19 17.5 560 17.5C571.44 17.5 566.59 1.53 578.85 0C636.59 -7.22 639.42 0 700 0C770 0 770 0 840 0C910 0 910 0 980 0C1050 0 1050 0 1120 0C1182.55 0 1183.65 -3.94 1245.11 0C1253.65 0.55 1253.88 2.83 1260 8.97C1323.64 72.83 1330.89 69.55 1384.63 140C1400.89 161.31 1387.95 192.5 1400 192.5C1414.16 192.5 1435.15 169.96 1437.06 140C1441.29 73.71 1385.17 36.87 1412.28 0C1436.64 -33.13 1509.53 -33.39 1540 0C1573.39 36.61 1540 70 1540 140C1540 210 1540 210 1540 280C1540 350 1540 350 1540 420C1540 490 1570 520 1540 560C1517.5 590 1457 590 1435 560C1405.66 520 1450.39 483.25 1437.33 420C1432.89 398.52 1422.47 394.96 1400 390.53C1333.81 377.46 1326.69 375.04 1260 385C1228.05 389.77 1202.73 402.03 1202.73 420C1202.73 438.34 1232.21 437.6 1260 457.61C1329.44 507.6 1397.2 531.58 1397.2 560C1397.2 582.78 1328.6 560 1260 560C1190 560 1190 560 1120 560C1052.5 560 1051.27 562.7 985 560C981.27 559.85 982.25 557.34 980 554.29C930.65 487.34 933.23 485.17 881.79 420C863.23 396.49 861.49 376.92 840 376.92C817.26 376.92 793.33 392.46 793.33 420C793.33 484 863.95 524.08 840 560C817.28 594.08 770 560 700 560C645.46 560 640.54 571.5 590.93 560C570.54 555.28 577.98 527.56 560 527.56C532.96 527.56 532.71 552.63 500.89 560C462.71 568.85 460.44 560 420 560C350 560 350 560 280 560C256.66 560 246.63 576.12 233.33 560C188.88 506.12 176.1 493.26 164.5 420C153.93 353.26 197.69 340.84 189 280C185.44 255.04 165.36 248.39 140 248.39C109.25 248.39 80.63 251.94 76.77 280C68.83 337.75 113.09 349.27 116.39 420C119.63 489.27 125.54 517.07 89.85 560C67.35 587.07 17.56 587.36 0 560C-27.36 517.36 0 490 0 420C0 350 0 350 0 280C0 210 0 210 0 140C0 70 -35 35 0 0C35 -35 70 0 140 0C210 0 210 0 280 0C350 0 350 0 420 0C461.17 0 461.93 -5.05 502.35 0" stroke="rgba(51, 121, 194, 0.58)" stroke-width="2"></path><path d="M980 134.17C971.2 135.29 963.2 136.19 963.2 140C963.2 144.22 973.96 142.57 980 150.24C1029.03 212.57 1025.75 215.81 1073.33 280C1095.75 310.25 1098.38 339.11 1120 339.11C1139.93 339.11 1154.43 312.68 1156.44 280C1160.55 213.13 1147.89 208.66 1132.25 140C1129.67 128.66 1130.88 120.42 1120 120C1054.75 117.5 1049.6 125.29 980 134.17" stroke="rgba(51, 121, 194, 0.58)" stroke-width="2"></path><path d="M0 31.7C6 9.7 15.24 5.19 38.18 0C85.24 -10.66 89.09 0 140 0C192.1 0 197.67 -12.79 244.19 0C267.67 6.46 266.14 16.41 280 38.5C310.07 86.41 324.22 86.01 332.05 140C341.72 206.76 290.03 233.97 315 280C334 315.02 367.08 293.55 420 302.11C489.58 313.36 492.73 326.45 560 319.62C601.62 315.39 637.78 302.43 637.78 280C637.78 255.69 590.46 260.59 560 226.15C528.55 190.59 513.97 181.19 513.97 140C513.97 108.11 534.13 107.4 560 80C600.22 37.4 598.14 27.43 646.15 0C668.14 -12.57 673.08 0 700 0C770 0 770 0 840 0C910 0 910 0 980 0C1050 0 1050 0 1120 0C1145.32 0 1147.77 -8.8 1170.64 0C1217.77 18.13 1219.97 21.13 1260 53.85C1305.62 91.13 1318.21 88.42 1341.95 140C1370.26 201.49 1386.43 226.5 1364.1 280C1345.45 324.69 1307.85 336.39 1260 336.39C1227.99 336.39 1219.36 315.03 1204.38 280C1177.36 216.83 1200.1 206.1 1176 140C1157.91 90.39 1161.69 60.15 1120 48.57C1063.69 32.93 1049.38 64.99 980 85.56C909.38 106.5 911.6 123.64 840 131.6C771.6 139.2 765.67 113.22 700 116.67C685.67 117.42 680 127.38 680 140C680 156.55 682.21 172.97 700 175C762.21 182.1 774.41 144.06 840 158.26C914.41 174.37 915.94 190.25 980 235.61C1001.9 251.12 995.22 258.37 1011.93 280C1065.22 349.01 1065.76 348.63 1120 416.89C1121.38 418.63 1121.33 418.77 1123.18 420C1191.33 465.25 1192.54 463.56 1260 509.85C1294.55 533.56 1327.2 546.08 1327.2 560C1327.2 571.16 1293.6 560 1260 560C1190 560 1190 560 1120 560C1083.75 560 1076.5 575.98 1047.5 560C1006.5 537.41 1012.24 522.64 980 482.86C955.51 452.64 959.63 449.22 934.03 420C889.63 369.33 888.35 323.08 840 323.08C788.84 323.08 747.76 362.13 735 420C721.64 480.59 798.79 515.88 787.76 560C781.29 585.88 743.88 560 700 560C665.82 560 659.43 574.92 631.63 560C589.43 537.36 601.63 484.88 560 484.88C497.37 484.88 491.74 523.17 423.11 560C421.74 560.73 421.56 560 420 560C415 560 414.85 561.17 410 560C344.85 544.32 331.6 562.11 280 526.3C230.72 492.11 209.04 475.61 208.25 420C207.29 352.46 293.2 335.82 276.5 280C259.08 221.79 210.87 197.8 140 191.94C72.62 186.37 39.81 271.91 0 257.14C-30.19 245.94 0 198.57 0 140C0 85.85 -13.09 79.7 0 31.7" stroke="rgba(51, 121, 194, 0.58)" stroke-width="2"></path><path d="M1540 140C1522.58 140 1473.68 49.02 1473.68 0C1473.68 -20.98 1529.34 -22.5 1540 0C1562.5 47.5 1555.74 140 1540 140" stroke="rgba(51, 121, 194, 0.58)" stroke-width="2"></path><path d="M1425.93 280C1425.93 213.92 1507.87 140 1540 140C1564.91 140 1540 210 1540 280C1540 333.11 1563.11 386.21 1540 386.21C1506.08 386.21 1425.93 337.03 1425.93 280" stroke="rgba(51, 121, 194, 0.58)" stroke-width="2"></path><path d="M0 301.54C20.09 301.54 64.98 356.5 74.22 420C83.79 485.73 67.06 504.44 37.61 560C29.95 574.44 3.98 574.82 0 560C-14.82 504.82 0 490 0 420C0 360.77 -17.02 301.54 0 301.54" stroke="rgba(51, 121, 194, 0.58)" stroke-width="2"></path><path d="M0 97.74C47.08 97.74 124.44 118.1 124.44 140C124.44 162.09 46.27 185.71 0 185.71C-15.95 185.71 0 162.86 0 140C0 118.87 -15.14 97.74 0 97.74" stroke="rgba(51, 121, 194, 0.58)" stroke-width="2"></path><path d="M140 108.89C128.74 108.89 117.73 45.36 117.73 0C117.73 -9.09 128.87 0 140 0C151.39 0 162.79 -9.26 162.79 0C162.79 45.19 151.27 108.89 140 108.89" stroke="rgba(51, 121, 194, 0.58)" stroke-width="2"></path><path d="M186.67 140C186.67 131.55 236.93 126 280 126C287.18 126 287.18 132.77 287.18 140C287.18 149.77 289.15 160 280 160C238.9 160 186.67 148.55 186.67 140" stroke="rgba(51, 121, 194, 0.58)" stroke-width="2"></path><path d="M840 61.6C779.41 52.79 725.93 16.38 725.93 0C725.93 -14.42 782.96 0 840 0C910 0 910 0 980 0C1029.26 0 1078.52 -8.93 1078.52 0C1078.52 9.54 1030.73 23.84 980 36.94C911.47 54.64 906.44 71.26 840 61.6" stroke="rgba(51, 121, 194, 0.58)" stroke-width="2"></path><path d="M1219.75 140C1220.85 114.05 1240 98.72 1260 98.72C1279.76 98.72 1297.22 114.07 1299.27 140C1304.4 204.71 1291.97 213.72 1274.36 280C1272.34 287.61 1266.6 287.78 1260 287.78C1255.59 287.78 1253.75 285.22 1252.33 280C1233.63 211.33 1217.01 204.69 1219.75 140" stroke="rgba(51, 121, 194, 0.58)" stroke-width="2"></path><path d="M1540 10.37C1538.71 10.37 1535.09 3.63 1535.09 0C1535.09 -1.55 1539.21 -1.67 1540 0C1541.67 3.52 1541.17 10.37 1540 10.37" stroke="rgba(51, 121, 194, 0.58)" stroke-width="2"></path><path d="M1490.74 280C1490.74 251.47 1526.13 219.55 1540 219.55C1550.76 219.55 1540 249.77 1540 280C1540 302.93 1549.98 325.86 1540 325.86C1525.35 325.86 1490.74 304.62 1490.74 280" stroke="rgba(51, 121, 194, 0.58)" stroke-width="2"></path><path d="M0 368.85C8.67 368.85 32.05 392.36 32.05 420C32.05 469.09 8.2 522.31 0 522.31C-7.83 522.31 0 471.15 0 420C0 394.42 -7.35 368.85 0 368.85" stroke="rgba(51, 121, 194, 0.58)" stroke-width="2"></path><path d="M252 420C252 392.91 258.12 364 280 364C316.92 364 369.6 394.8 369.6 420C369.6 443.54 319.02 461.48 280 461.48C260.22 461.48 252 441.65 252 420" stroke="rgba(51, 121, 194, 0.58)" stroke-width="2"></path><path d="M477.27 420C477.27 405.55 518.77 385.66 560 385.66C599.7 385.66 639.13 405.52 639.13 420C639.13 433.79 599.63 442.2 560 442.2C518.7 442.2 477.27 433.82 477.27 420" stroke="rgba(51, 121, 194, 0.58)" stroke-width="2"></path><path d="M672.33 560C672.33 526.08 684.43 471.85 700 471.85C716.02 471.85 735.52 527.92 735.52 560C735.52 571.99 717.76 560 700 560C686.16 560 672.33 570.16 672.33 560" stroke="rgba(51, 121, 194, 0.58)" stroke-width="2"></path><path d="M1110 560C1110 553.09 1109.98 540 1120 540C1170.98 540 1232 554.96 1232 560C1232 564.96 1176 560 1120 560C1115 560 1110 563.09 1110 560" stroke="rgba(51, 121, 194, 0.58)" stroke-width="2"></path></g><defs><mask id="SvgjsMask1003"><rect width="1440" height="560" fill="#ffffff"></rect></mask></defs></svg>